<mxfile host="app.diagrams.net" modified="2023-10-24T18:52:20.735Z" agent="Mozilla/5.0 (Macintosh; Intel Mac OS X 10_15_7) AppleWebKit/537.36 (KHTML, like Gecko) Chrome/118.0.0.0 Safari/537.36" etag="18FnhcLizk9vIVmf0b_5" version="22.0.6" type="github">
  <diagram name="Page-1" id="0LIAlzgvQsmN1ISVH59P">
    <mxGraphModel dx="710" dy="446" grid="1" gridSize="10" guides="1" tooltips="1" connect="1" arrows="1" fold="1" page="1" pageScale="1" pageWidth="850" pageHeight="1100" math="0" shadow="0">
      <root>
        <mxCell id="0" />
        <mxCell id="1" parent="0" />
        <mxCell id="BT7kY2NeNf5wOfboyn3W-1" style="edgeStyle=orthogonalEdgeStyle;rounded=0;orthogonalLoop=1;jettySize=auto;html=1;exitX=0.5;exitY=1;exitDx=0;exitDy=0;entryX=0.5;entryY=0;entryDx=0;entryDy=0;" edge="1" parent="1" source="BT7kY2NeNf5wOfboyn3W-2" target="BT7kY2NeNf5wOfboyn3W-4">
          <mxGeometry relative="1" as="geometry" />
        </mxCell>
        <mxCell id="BT7kY2NeNf5wOfboyn3W-2" value="Формирование требований к JSI" style="rounded=0;whiteSpace=wrap;html=1;enumerate=0;fillColor=#d5e8d4;strokeColor=#82b366;" vertex="1" parent="1">
          <mxGeometry x="350" y="160" width="120" height="80" as="geometry" />
        </mxCell>
        <mxCell id="BT7kY2NeNf5wOfboyn3W-4" value="Описание сигнатуры JSI в ГИ" style="rounded=0;whiteSpace=wrap;html=1;enumerate=0;fillColor=#d5e8d4;strokeColor=#82b366;" vertex="1" parent="1">
          <mxGeometry x="350" y="270" width="120" height="80" as="geometry" />
        </mxCell>
        <mxCell id="BT7kY2NeNf5wOfboyn3W-5" style="edgeStyle=orthogonalEdgeStyle;rounded=0;orthogonalLoop=1;jettySize=auto;html=1;exitX=0.5;exitY=1;exitDx=0;exitDy=0;entryX=0.5;entryY=0;entryDx=0;entryDy=0;" edge="1" parent="1" source="BT7kY2NeNf5wOfboyn3W-7" target="BT7kY2NeNf5wOfboyn3W-8">
          <mxGeometry relative="1" as="geometry">
            <Array as="points">
              <mxPoint x="420" y="750" />
              <mxPoint x="320" y="750" />
            </Array>
          </mxGeometry>
        </mxCell>
        <mxCell id="BT7kY2NeNf5wOfboyn3W-6" style="edgeStyle=orthogonalEdgeStyle;rounded=0;orthogonalLoop=1;jettySize=auto;html=1;exitX=0.5;exitY=1;exitDx=0;exitDy=0;entryX=0.5;entryY=0;entryDx=0;entryDy=0;" edge="1" parent="1" source="BT7kY2NeNf5wOfboyn3W-7" target="BT7kY2NeNf5wOfboyn3W-9">
          <mxGeometry relative="1" as="geometry">
            <Array as="points">
              <mxPoint x="420" y="750" />
              <mxPoint x="520" y="750" />
            </Array>
          </mxGeometry>
        </mxCell>
        <mxCell id="BT7kY2NeNf5wOfboyn3W-7" value="Реализация функционала JSI" style="rounded=0;whiteSpace=wrap;html=1;enumerate=0;fillColor=#fff2cc;strokeColor=#d6b656;" vertex="1" parent="1">
          <mxGeometry x="360" y="660" width="120" height="80" as="geometry" />
        </mxCell>
        <mxCell id="BT7kY2NeNf5wOfboyn3W-8" value="Актуализация документации" style="rounded=0;whiteSpace=wrap;html=1;enumerate=0;fillColor=#fff2cc;strokeColor=#d6b656;" vertex="1" parent="1">
          <mxGeometry x="260" y="770" width="120" height="80" as="geometry" />
        </mxCell>
        <mxCell id="BT7kY2NeNf5wOfboyn3W-9" value="Актуализация витрины" style="rounded=0;whiteSpace=wrap;html=1;enumerate=0;fillColor=#fff2cc;strokeColor=#d6b656;" vertex="1" parent="1">
          <mxGeometry x="460" y="770" width="120" height="80" as="geometry" />
        </mxCell>
        <mxCell id="BT7kY2NeNf5wOfboyn3W-10" value="1" style="rounded=0;whiteSpace=wrap;html=1;" vertex="1" parent="1">
          <mxGeometry x="350" y="160" width="20" height="20" as="geometry" />
        </mxCell>
        <mxCell id="BT7kY2NeNf5wOfboyn3W-11" value="2" style="rounded=0;whiteSpace=wrap;html=1;" vertex="1" parent="1">
          <mxGeometry x="350" y="270" width="20" height="20" as="geometry" />
        </mxCell>
        <mxCell id="BT7kY2NeNf5wOfboyn3W-12" value="3" style="rounded=0;whiteSpace=wrap;html=1;" vertex="1" parent="1">
          <mxGeometry x="360" y="660" width="20" height="20" as="geometry" />
        </mxCell>
        <mxCell id="BT7kY2NeNf5wOfboyn3W-13" value="4" style="rounded=0;whiteSpace=wrap;html=1;" vertex="1" parent="1">
          <mxGeometry x="260" y="770" width="20" height="20" as="geometry" />
        </mxCell>
        <mxCell id="BT7kY2NeNf5wOfboyn3W-14" value="5" style="rounded=0;whiteSpace=wrap;html=1;" vertex="1" parent="1">
          <mxGeometry x="460" y="770" width="20" height="20" as="geometry" />
        </mxCell>
        <mxCell id="BT7kY2NeNf5wOfboyn3W-15" value="Генерация новой версии компонентов" style="rounded=0;whiteSpace=wrap;html=1;enumerate=0;fillColor=#d5e8d4;strokeColor=#82b366;" vertex="1" parent="1">
          <mxGeometry x="350" y="380" width="120" height="80" as="geometry" />
        </mxCell>
        <mxCell id="BT7kY2NeNf5wOfboyn3W-16" value="2" style="rounded=0;whiteSpace=wrap;html=1;" vertex="1" parent="1">
          <mxGeometry x="350" y="380" width="20" height="20" as="geometry" />
        </mxCell>
        <mxCell id="BT7kY2NeNf5wOfboyn3W-17" value="Подключение новой версии (Android)" style="rounded=0;whiteSpace=wrap;html=1;enumerate=0;fillColor=#d5e8d4;strokeColor=#82b366;" vertex="1" parent="1">
          <mxGeometry x="230" y="490" width="120" height="80" as="geometry" />
        </mxCell>
        <mxCell id="BT7kY2NeNf5wOfboyn3W-18" value="Подключение новой версии (iOS)" style="rounded=0;whiteSpace=wrap;html=1;enumerate=0;fillColor=#d5e8d4;strokeColor=#82b366;" vertex="1" parent="1">
          <mxGeometry x="380" y="490" width="120" height="80" as="geometry" />
        </mxCell>
        <mxCell id="BT7kY2NeNf5wOfboyn3W-19" value="Подключение новой версии (frontend)" style="rounded=0;whiteSpace=wrap;html=1;enumerate=0;fillColor=#d5e8d4;strokeColor=#82b366;" vertex="1" parent="1">
          <mxGeometry x="530" y="490" width="120" height="80" as="geometry" />
        </mxCell>
        <mxCell id="BT7kY2NeNf5wOfboyn3W-20" value="Генерация новой версии Витрины" style="rounded=0;whiteSpace=wrap;html=1;enumerate=0;fillColor=#d5e8d4;strokeColor=#82b366;" vertex="1" parent="1">
          <mxGeometry x="500" y="380" width="120" height="80" as="geometry" />
        </mxCell>
      </root>
    </mxGraphModel>
  </diagram>
</mxfile>
